# xmcd
#
# Track frame offsets:
#	150
#	9376
#	25873
#	32004
#	47286
#	52998
#	62626
#	72032
#	88524
#	102639
#	119513
#	126988
#	150947
#	155402
#	170667
#	177451
#	186921
#	191846
#	209504
#	223817
#
# Disc length: 3199 seconds
#
# Revision: 0
# Processed by: cddbd v1.5.1PL2 Copyright (c) Steve Scherf et al.
# Submitted via: EasyCDDAExtractor 8.2.3.1
#
DISCID=190c7d14
DTITLE=BONI PUERI a hoste - Kouzelne vanoce
DYEAR=2004
DGENRE=Ruzne
TTITLE0=Stedrej vecer nastal
TTITLE1=Panis Angelicus
TTITLE2=Pochvalen bud Jezis Kristus
TTITLE3=Cantique de Noel
TTITLE4=Chtic, aby spal
TTITLE5=Hark! The Herald angles sing
TTITLE6=Nesem vam noviny
TTITLE7=Air
TTITLE8=Kristus Pan se narodil
TTITLE9=Hallelujah
TTITLE10=Jak jsi krasne nevinatko
TTITLE11=Cantique de Jean Racine
TTITLE12=Ja bych rad k Betlemu
TTITLE13=El Nacimento
TTITLE14=Vesele vanocni hody
TTITLE15=Ding dong! Marrily on high
TTITLE16=Byla cesta, byla uslapana
TTITLE17=Pie Jesu
TTITLE18=Narodil se Kristus Pan
TTITLE19=Ticha noc
EXTD=
EXTT0=
EXTT1=
EXTT2=
EXTT3=
EXTT4=
EXTT5=
EXTT6=
EXTT7=
EXTT8=
EXTT9=
EXTT10=
EXTT11=
EXTT12=
EXTT13=
EXTT14=
EXTT15=
EXTT16=
EXTT17=
EXTT18=
EXTT19=
PLAYORDER=
